<svg xmlns="http://www.w3.org/2000/svg" width="24" height="24" viewBox="0 0 24 24">
    <g fill="none" fill-rule="evenodd">
        <path d="M0 0h24v24H0z"/>
        <path fill="#0087BA" fill-rule="nonzero" d="M21.486 7.718l-8.51-4.484a2.12 2.12 0 0 0-1.936 0L2.53 7.718a.96.96 0 0 0 0 1.715l8.51 4.484a2.12 2.12 0 0 0 1.936 0l8.51-4.484a.973.973 0 0 0 0-1.715zM11.04 15.867L4.95 12.65v2.75c0 .72.403 1.364 1.048 1.715l5.042 2.651a2.12 2.12 0 0 0 1.936 0l5.041-2.651c.645-.351 1.049-1.014 1.049-1.716V12.65l-6.09 3.217a2.12 2.12 0 0 1-1.936 0z"/>
    </g>
</svg>
