<svg xmlns="http://www.w3.org/2000/svg" width="24" height="24" viewBox="0 0 24 24">
    <g fill="none" fill-rule="evenodd">
        <path d="M0 0h24v24H0z"/>
        <path fill="#0087BA" fill-rule="nonzero" d="M11.778 2c4.288 0 7.778 3.435 7.778 7.656a7.562 7.562 0 0 1-1.58 4.627l-5.656 7.448a.68.68 0 0 1-1.085 0L5.58 14.283A7.562 7.562 0 0 1 4 9.656C4 5.435 7.49 2 11.778 2zm0 10.195c1.422 0 2.58-1.139 2.58-2.539 0-1.4-1.158-2.539-2.58-2.539-1.422 0-2.58 1.14-2.58 2.54 0 1.4 1.158 2.538 2.58 2.538z"/>
    </g>
</svg>
