<svg width="24" height="25" viewBox="0 0 24 25" fill="none" xmlns="http://www.w3.org/2000/svg">
<path d="M10.8751 14.521C14.0566 14.521 16.6357 11.942 16.6357 8.76052C16.6357 5.57907 14.0566 3 10.8751 3C7.6937 3 5.11462 5.57907 5.11462 8.76052C5.11462 11.942 7.6937 14.521 10.8751 14.521Z" fill="#0087BA"/>
<path d="M15.8125 14.5211H5.9375C4.62938 14.5211 3.37473 15.0402 2.449 15.9644C1.52327 16.8887 1.00213 18.1425 1 19.4506C2.14822 20.9859 3.63861 22.2324 5.35282 23.0909C7.06702 23.9495 8.95781 24.3965 10.875 24.3965C12.7922 24.3965 14.683 23.9495 16.3972 23.0909C18.1114 22.2324 19.6018 20.9859 20.75 19.4506C20.7479 18.1425 20.2267 16.8887 19.301 15.9644C18.3753 15.0402 17.1206 14.5211 15.8125 14.5211Z" fill="#0087BA"/>
<path d="M10.3264 21.3788C10.2303 21.3789 10.1352 21.36 10.0464 21.3233C9.95765 21.2865 9.87702 21.2325 9.80917 21.1645L8.34621 19.7016C8.20903 19.5644 8.13196 19.3783 8.13196 19.1843C8.13196 18.9903 8.20903 18.8043 8.34621 18.6671C8.48339 18.5299 8.66945 18.4528 8.86346 18.4528C9.05746 18.4528 9.24352 18.5299 9.38071 18.6671L10.3264 19.6129L12.7351 17.2041C12.8723 17.0669 13.0583 16.9899 13.2523 16.9899C13.4463 16.9899 13.6324 17.0669 13.7696 17.2041C13.9068 17.3413 13.9838 17.5274 13.9838 17.7214C13.9838 17.9154 13.9068 18.1014 13.7696 18.2386L10.8437 21.1645C10.7758 21.2325 10.6952 21.2865 10.6064 21.3233C10.5176 21.36 10.4225 21.3789 10.3264 21.3788Z" fill="white"/>
</svg>
